<mxfile host="app.diagrams.net" modified="2024-01-21T06:25:11.212Z" agent="Mozilla/5.0 (Macintosh; Intel Mac OS X 10_15_7) AppleWebKit/537.36 (KHTML, like Gecko) Chrome/120.0.0.0 Safari/537.36" etag="Cb3yghb36xxBfhspzzsS" version="22.1.21" type="github">
  <diagram name="Page-1" id="aaaa8250-4180-3840-79b5-4cada1eebb92">
    <mxGraphModel dx="2924" dy="1121" grid="1" gridSize="10" guides="1" tooltips="1" connect="1" arrows="1" fold="1" page="1" pageScale="1" pageWidth="850" pageHeight="1100" background="none" math="0" shadow="0">
      <root>
        <mxCell id="0" />
        <mxCell id="1" parent="0" />
        <mxCell id="64R8TixSoIScUBKTJMOt-53" style="edgeStyle=orthogonalEdgeStyle;rounded=0;orthogonalLoop=1;jettySize=auto;html=1;" edge="1" parent="1" source="64R8TixSoIScUBKTJMOt-3" target="64R8TixSoIScUBKTJMOt-10">
          <mxGeometry relative="1" as="geometry">
            <Array as="points">
              <mxPoint x="389" y="289" />
            </Array>
          </mxGeometry>
        </mxCell>
        <mxCell id="64R8TixSoIScUBKTJMOt-3" value="Application" style="outlineConnect=0;dashed=0;verticalLabelPosition=middle;verticalAlign=middle;align=left;html=1;shape=mxgraph.aws3.ec2;fillColor=#F58534;gradientColor=none;labelPosition=right;" vertex="1" parent="1">
          <mxGeometry x="351" y="320" width="76.5" height="93" as="geometry" />
        </mxCell>
        <mxCell id="64R8TixSoIScUBKTJMOt-6" value="Deployment" style="outlineConnect=0;dashed=0;verticalLabelPosition=top;verticalAlign=bottom;align=center;html=1;shape=mxgraph.aws3.deployment;fillColor=#F58534;gradientColor=none;labelPosition=center;" vertex="1" parent="1">
          <mxGeometry x="-80" y="324.75" width="55.5" height="73.5" as="geometry" />
        </mxCell>
        <mxCell id="64R8TixSoIScUBKTJMOt-7" value="Lambda" style="outlineConnect=0;dashed=0;verticalLabelPosition=middle;verticalAlign=middle;align=left;html=1;shape=mxgraph.aws3.lambda_function;fillColor=#F58534;gradientColor=none;labelPosition=right;" vertex="1" parent="1">
          <mxGeometry x="650" y="420" width="69" height="72" as="geometry" />
        </mxCell>
        <mxCell id="64R8TixSoIScUBKTJMOt-15" style="edgeStyle=orthogonalEdgeStyle;rounded=0;orthogonalLoop=1;jettySize=auto;html=1;" edge="1" parent="1" source="64R8TixSoIScUBKTJMOt-8" target="64R8TixSoIScUBKTJMOt-3">
          <mxGeometry relative="1" as="geometry" />
        </mxCell>
        <mxCell id="64R8TixSoIScUBKTJMOt-19" style="edgeStyle=orthogonalEdgeStyle;rounded=0;orthogonalLoop=1;jettySize=auto;html=1;startArrow=classic;startFill=1;endArrow=none;endFill=0;" edge="1" parent="1" source="64R8TixSoIScUBKTJMOt-8" target="64R8TixSoIScUBKTJMOt-12">
          <mxGeometry relative="1" as="geometry" />
        </mxCell>
        <mxCell id="64R8TixSoIScUBKTJMOt-8" value="Load Balancer" style="outlineConnect=0;dashed=0;verticalLabelPosition=middle;verticalAlign=middle;align=left;html=1;shape=mxgraph.aws3.application_load_balancer;fillColor=#F58534;gradientColor=none;labelPosition=right;" vertex="1" parent="1">
          <mxGeometry x="354.75" y="540" width="69" height="72" as="geometry" />
        </mxCell>
        <mxCell id="64R8TixSoIScUBKTJMOt-9" value="Build" style="outlineConnect=0;dashed=0;verticalLabelPosition=bottom;verticalAlign=top;align=center;html=1;shape=mxgraph.aws3.spot_instance;fillColor=#F58534;gradientColor=none;labelPosition=center;" vertex="1" parent="1">
          <mxGeometry x="80" y="330" width="60" height="63" as="geometry" />
        </mxCell>
        <mxCell id="64R8TixSoIScUBKTJMOt-10" value="Content" style="outlineConnect=0;dashed=0;verticalLabelPosition=top;verticalAlign=bottom;align=center;html=1;shape=mxgraph.aws3.ms_sql_instance_2;fillColor=#2E73B8;gradientColor=none;labelPosition=center;" vertex="1" parent="1">
          <mxGeometry x="500" y="257" width="60" height="63" as="geometry" />
        </mxCell>
        <mxCell id="64R8TixSoIScUBKTJMOt-12" value="CDN" style="outlineConnect=0;dashed=0;verticalLabelPosition=middle;verticalAlign=middle;align=left;html=1;shape=mxgraph.aws3.cloudfront;fillColor=#F58536;gradientColor=none;labelPosition=right;" vertex="1" parent="1">
          <mxGeometry x="250" y="700" width="76.5" height="93" as="geometry" />
        </mxCell>
        <mxCell id="64R8TixSoIScUBKTJMOt-13" value="Media" style="outlineConnect=0;dashed=0;verticalLabelPosition=middle;verticalAlign=middle;align=right;html=1;shape=mxgraph.aws3.s3;fillColor=#E05243;gradientColor=none;labelPosition=left;" vertex="1" parent="1">
          <mxGeometry x="103.95" y="915" width="76.5" height="93" as="geometry" />
        </mxCell>
        <mxCell id="64R8TixSoIScUBKTJMOt-16" style="edgeStyle=orthogonalEdgeStyle;rounded=0;orthogonalLoop=1;jettySize=auto;html=1;entryX=0;entryY=0.5;entryDx=0;entryDy=0;entryPerimeter=0;" edge="1" parent="1" source="64R8TixSoIScUBKTJMOt-9" target="64R8TixSoIScUBKTJMOt-3">
          <mxGeometry relative="1" as="geometry">
            <Array as="points">
              <mxPoint x="150" y="367" />
              <mxPoint x="266" y="367" />
            </Array>
          </mxGeometry>
        </mxCell>
        <mxCell id="64R8TixSoIScUBKTJMOt-18" style="edgeStyle=orthogonalEdgeStyle;rounded=0;orthogonalLoop=1;jettySize=auto;html=1;entryX=0;entryY=0.5;entryDx=0;entryDy=0;entryPerimeter=0;" edge="1" parent="1" source="64R8TixSoIScUBKTJMOt-6" target="64R8TixSoIScUBKTJMOt-9">
          <mxGeometry relative="1" as="geometry" />
        </mxCell>
        <mxCell id="64R8TixSoIScUBKTJMOt-33" style="edgeStyle=orthogonalEdgeStyle;rounded=0;orthogonalLoop=1;jettySize=auto;html=1;" edge="1" parent="1" source="64R8TixSoIScUBKTJMOt-21" target="64R8TixSoIScUBKTJMOt-6">
          <mxGeometry relative="1" as="geometry" />
        </mxCell>
        <mxCell id="64R8TixSoIScUBKTJMOt-21" value="Source" style="verticalLabelPosition=bottom;html=1;verticalAlign=top;align=center;strokeColor=none;fillColor=#00BEF2;shape=mxgraph.azure.github_code;pointerEvents=1;" vertex="1" parent="1">
          <mxGeometry x="-77.25" y="562" width="50" height="50" as="geometry" />
        </mxCell>
        <mxCell id="64R8TixSoIScUBKTJMOt-23" value="Authentication" style="verticalLabelPosition=middle;html=1;verticalAlign=middle;align=left;strokeColor=none;fillColor=#00BEF2;shape=mxgraph.azure.multi_factor_authentication;pointerEvents=1;labelPosition=right;" vertex="1" parent="1">
          <mxGeometry x="129.70000000000002" y="551" width="25" height="50" as="geometry" />
        </mxCell>
        <mxCell id="64R8TixSoIScUBKTJMOt-28" style="edgeStyle=orthogonalEdgeStyle;rounded=0;orthogonalLoop=1;jettySize=auto;html=1;" edge="1" parent="1" source="64R8TixSoIScUBKTJMOt-27" target="64R8TixSoIScUBKTJMOt-12">
          <mxGeometry relative="1" as="geometry" />
        </mxCell>
        <mxCell id="64R8TixSoIScUBKTJMOt-44" value="Comments /&lt;br&gt;Reactions" style="edgeStyle=orthogonalEdgeStyle;rounded=0;orthogonalLoop=1;jettySize=auto;html=1;entryX=0.5;entryY=0.985;entryDx=0;entryDy=0;entryPerimeter=0;" edge="1" parent="1" source="64R8TixSoIScUBKTJMOt-27" target="64R8TixSoIScUBKTJMOt-57">
          <mxGeometry x="0.4587" relative="1" as="geometry">
            <mxPoint as="offset" />
          </mxGeometry>
        </mxCell>
        <mxCell id="64R8TixSoIScUBKTJMOt-27" value="Client" style="verticalLabelPosition=top;html=1;verticalAlign=bottom;align=center;strokeColor=none;fillColor=#00BEF2;shape=mxgraph.azure.computer;pointerEvents=1;labelPosition=center;" vertex="1" parent="1">
          <mxGeometry x="364.25" y="870" width="50" height="45" as="geometry" />
        </mxCell>
        <mxCell id="64R8TixSoIScUBKTJMOt-34" value="Content Editor" style="shadow=0;dashed=0;html=1;strokeColor=none;fillColor=#4495D1;labelPosition=left;verticalLabelPosition=middle;verticalAlign=middle;align=right;outlineConnect=0;shape=mxgraph.veeam.portal_admin;" vertex="1" parent="1">
          <mxGeometry x="120" y="722.1" width="44.4" height="48.8" as="geometry" />
        </mxCell>
        <mxCell id="64R8TixSoIScUBKTJMOt-38" style="edgeStyle=orthogonalEdgeStyle;rounded=0;orthogonalLoop=1;jettySize=auto;html=1;entryX=0.5;entryY=1;entryDx=0;entryDy=0;entryPerimeter=0;" edge="1" parent="1" source="64R8TixSoIScUBKTJMOt-23" target="64R8TixSoIScUBKTJMOt-3">
          <mxGeometry relative="1" as="geometry">
            <Array as="points">
              <mxPoint x="142" y="490" />
              <mxPoint x="389" y="490" />
            </Array>
          </mxGeometry>
        </mxCell>
        <mxCell id="64R8TixSoIScUBKTJMOt-56" value="Visual Editor&lt;br&gt;/ Cache clear" style="edgeLabel;html=1;align=center;verticalAlign=middle;resizable=0;points=[];" vertex="1" connectable="0" parent="64R8TixSoIScUBKTJMOt-38">
          <mxGeometry x="-0.0714" y="2" relative="1" as="geometry">
            <mxPoint as="offset" />
          </mxGeometry>
        </mxCell>
        <mxCell id="64R8TixSoIScUBKTJMOt-41" style="edgeStyle=orthogonalEdgeStyle;rounded=0;orthogonalLoop=1;jettySize=auto;html=1;entryX=0.5;entryY=0.985;entryDx=0;entryDy=0;entryPerimeter=0;" edge="1" parent="1" source="64R8TixSoIScUBKTJMOt-34" target="64R8TixSoIScUBKTJMOt-23">
          <mxGeometry relative="1" as="geometry" />
        </mxCell>
        <mxCell id="64R8TixSoIScUBKTJMOt-52" style="edgeStyle=orthogonalEdgeStyle;rounded=0;orthogonalLoop=1;jettySize=auto;html=1;entryX=1;entryY=0.5;entryDx=0;entryDy=0;entryPerimeter=0;" edge="1" parent="1" source="64R8TixSoIScUBKTJMOt-7" target="64R8TixSoIScUBKTJMOt-10">
          <mxGeometry relative="1" as="geometry">
            <Array as="points">
              <mxPoint x="685" y="289" />
            </Array>
          </mxGeometry>
        </mxCell>
        <mxCell id="64R8TixSoIScUBKTJMOt-54" style="edgeStyle=orthogonalEdgeStyle;rounded=0;orthogonalLoop=1;jettySize=auto;html=1;entryX=1;entryY=0.5;entryDx=0;entryDy=0;entryPerimeter=0;" edge="1" parent="1" source="64R8TixSoIScUBKTJMOt-27" target="64R8TixSoIScUBKTJMOt-13">
          <mxGeometry relative="1" as="geometry">
            <Array as="points">
              <mxPoint x="389" y="962" />
              <mxPoint x="275" y="962" />
            </Array>
          </mxGeometry>
        </mxCell>
        <mxCell id="64R8TixSoIScUBKTJMOt-55" style="edgeStyle=orthogonalEdgeStyle;rounded=0;orthogonalLoop=1;jettySize=auto;html=1;entryX=0.5;entryY=0;entryDx=0;entryDy=0;entryPerimeter=0;" edge="1" parent="1" source="64R8TixSoIScUBKTJMOt-34" target="64R8TixSoIScUBKTJMOt-13">
          <mxGeometry relative="1" as="geometry" />
        </mxCell>
        <mxCell id="64R8TixSoIScUBKTJMOt-57" value="Authentication" style="verticalLabelPosition=middle;html=1;verticalAlign=middle;align=left;strokeColor=none;fillColor=#00BEF2;shape=mxgraph.azure.multi_factor_authentication;pointerEvents=1;labelPosition=right;" vertex="1" parent="1">
          <mxGeometry x="672" y="640" width="25" height="50" as="geometry" />
        </mxCell>
        <mxCell id="64R8TixSoIScUBKTJMOt-58" style="edgeStyle=orthogonalEdgeStyle;rounded=0;orthogonalLoop=1;jettySize=auto;html=1;entryX=0.5;entryY=1;entryDx=0;entryDy=0;entryPerimeter=0;" edge="1" parent="1" source="64R8TixSoIScUBKTJMOt-57" target="64R8TixSoIScUBKTJMOt-7">
          <mxGeometry relative="1" as="geometry" />
        </mxCell>
      </root>
    </mxGraphModel>
  </diagram>
</mxfile>
